<?xml version="1.0" standalone="no"?>
<!DOCTYPE svg PUBLIC "-//W3C//DTD SVG 20010904//EN"
 "http://www.w3.org/TR/2001/REC-SVG-20010904/DTD/svg10.dtd">
<svg version="1.0" xmlns="http://www.w3.org/2000/svg"
 width="450.000000pt" height="450.000000pt" viewBox="0 0 450.000000 450.000000"
 preserveAspectRatio="xMidYMid meet">
<metadata>
Created by potrace 1.11, written by Peter Selinger 2001-2013
</metadata>
<g transform="translate(0.000000,450.000000) scale(0.100000,-0.100000)"
fill="#000000" stroke="none">
<path d="M922 3592 c2 -9 16 -17 33 -19 103 -13 196 -70 227 -141 21 -47 21
-54 20 -1177 0 -621 -3 -1139 -6 -1150 -2 -11 -5 -28 -5 -37 -1 -26 -60 -87
-100 -104 -20 -8 -58 -20 -86 -26 -61 -12 -74 -23 -47 -37 14 -8 156 -10 464
-7 244 2 444 4 446 5 1 1 2 7 2 15 0 8 -17 16 -47 20 -135 18 -233 92 -268
201 -18 56 -20 94 -20 625 l0 565 770 0 770 0 0 -520 c0 -286 -3 -551 -7 -590
-8 -84 -31 -157 -66 -208 -30 -44 -46 -55 -99 -62 -68 -10 -82 -15 -77 -28 3
-10 83 -13 367 -13 199 0 401 -3 449 -6 70 -5 88 -3 92 9 6 15 6 15 -69 34
-113 28 -192 89 -227 177 l-23 57 -3 1100 c-2 805 0 1111 8 1140 20 70 72 107
188 134 29 7 52 18 52 25 0 9 -82 12 -327 11 -181 0 -379 2 -442 5 -75 3 -115
1 -118 -5 -2 -6 43 -26 99 -44 120 -38 161 -63 185 -111 15 -31 17 -82 17
-490 l1 -455 -767 -3 -768 -2 -1 27 c-6 245 1 876 10 909 20 75 104 133 224
156 10 1 19 7 20 12 1 5 -176 10 -403 11 -223 2 -420 5 -438 8 -26 4 -32 1
-30 -11z"/>
</g>
</svg>
